<?xml version="1.0" standalone="no"?>
<!DOCTYPE svg PUBLIC "-//W3C//DTD SVG 20010904//EN"
 "http://www.w3.org/TR/2001/REC-SVG-20010904/DTD/svg10.dtd">
<svg version="1.0" xmlns="http://www.w3.org/2000/svg"
 width="500.000000pt" height="500.000000pt" viewBox="0 0 500.000000 500.000000"
 preserveAspectRatio="xMidYMid meet">
<metadata>
Created by potrace 1.11, written by Peter Selinger 2001-2013
</metadata>
<g transform="translate(0.000000,500.000000) scale(0.100000,-0.100000)"
fill="#000000" stroke="none">
<path d="M3106 4703 c7 -97 7 -173 0 -242 -2 -22 -14 -27 -136 -60 -73 -20
-135 -41 -137 -47 -2 -5 6 -36 17 -69 11 -32 20 -63 20 -70 0 -6 -45 -26 -99
-44 -54 -18 -139 -52 -188 -76 -80 -39 -91 -48 -109 -87 -24 -55 -76 -130
-114 -167 -39 -36 -180 -160 -305 -266 -33 -27 -66 -57 -75 -65 -9 -8 -36 -32
-60 -52 -25 -20 -58 -49 -75 -63 -16 -15 -44 -38 -62 -52 -41 -33 -50 -60 -57
-158 -3 -44 -9 -110 -12 -146 -8 -83 3 -104 98 -205 63 -66 74 -74 108 -74 20
0 58 -6 83 -14 26 -8 47 -13 47 -11 0 2 20 -3 44 -10 24 -8 46 -12 48 -10 1 2
26 6 53 9 99 11 188 66 241 150 36 56 89 87 164 93 51 5 70 1 147 -30 49 -20
119 -43 154 -51 79 -19 234 -15 302 7 55 18 57 21 -41 -80 -90 -93 -149 -157
-202 -223 -25 -30 -53 -63 -63 -75 -10 -11 -37 -45 -60 -75 -23 -30 -44 -57
-47 -60 -3 -3 -27 -34 -53 -70 -27 -36 -53 -72 -60 -80 -47 -60 -182 -270
-219 -340 -43 -80 -84 -183 -93 -230 -2 -12 -7 -30 -10 -40 -23 -72 -35 -272
-20 -340 3 -14 7 -38 10 -55 10 -72 75 -224 98 -227 16 -2 1727 -5 1727 -3 0
1 -7 16 -15 33 -25 50 -41 160 -39 272 1 87 10 137 48 295 26 105 49 197 53
205 3 8 8 24 10 35 7 40 25 103 63 225 22 69 39 129 39 134 -1 5 3 12 8 15 7
5 16 29 38 101 1 3 5 14 10 25 27 66 44 115 48 141 3 16 8 40 11 54 21 90 31
215 31 405 0 147 -9 277 -20 295 -2 3 -6 23 -9 45 -9 58 -73 300 -98 370 -28
80 -86 201 -104 216 -8 6 -14 16 -14 21 0 18 -93 127 -172 200 -182 169 -415
301 -606 343 -28 6 -37 16 -62 67 -16 33 -47 84 -68 112 -52 68 -197 206 -217
206 -3 0 -3 -48 1 -107z"/>
<path d="M2273 918 c-13 -6 -26 -20 -30 -32 -10 -32 -10 -577 0 -609 5 -15 17
-32 27 -37 12 -6 387 -10 1023 -10 l1004 0 19 21 c25 27 31 137 24 427 -5 210
-5 214 -29 233 -23 18 -53 19 -1020 18 -689 0 -1003 -4 -1018 -11z"/>
</g>
</svg>
